<svg width="1442" height="1407" viewBox="0 0 1442 1407" fill="none" xmlns="http://www.w3.org/2000/svg">
<rect x="183" y="753" width="18" height="28" fill="#8B8B8B"/>
<rect x="1231" y="662" width="18" height="27" fill="#8B8B8B"/>
<path d="M183.065 753.39L809.566 395.39L1248.57 661.483L622.066 1019.48L183.065 753.39Z" fill="#D9D9D9"/>
<line x1="788.523" y1="535.664" x2="807.523" y2="395.664" stroke="#8B8B8B" stroke-width="5"/>
<line x1="789.662" y1="537.589" x2="1248.66" y2="663.589" stroke="#8B8B8B" stroke-width="5"/>
<line x1="805.296" y1="395.862" x2="1247.3" y2="663.862" stroke="#8B8B8B" stroke-width="5"/>
<line x1="808.248" y1="396.166" x2="185.248" y2="755.166" stroke="#8B8B8B" stroke-width="5"/>
<line x1="603.671" y1="638.408" x2="183.671" y2="755.408" stroke="#8B8B8B" stroke-width="5"/>
<line x1="615.659" y1="1021.46" x2="188.931" y2="771.353" stroke="#8B8B8B" stroke-width="24"/>
<line x1="603.497" y1="635.874" x2="622.497" y2="1013.87" stroke="#8B8B8B" stroke-width="5"/>
<line x1="792.191" y1="535.198" x2="602.191" y2="638.198" stroke="#848383" stroke-width="5"/>
<line x1="1242.88" y1="678.46" x2="616.882" y2="1030.46" stroke="#8B8B8B" stroke-width="24"/>
<line x1="243" y1="805" x2="243" y2="1158" stroke="#8B8B8B" stroke-width="24"/>
<line x1="613" y1="1014" x2="613" y2="1376" stroke="#8B8B8B" stroke-width="24"/>
<line x1="1160" y1="724" x2="1160" y2="1087" stroke="#8B8B8B" stroke-width="24"/>
<line x1="606.921" y1="1363.35" x2="235.921" y2="1145.35" stroke="#8B8B8B" stroke-width="24"/>
<line x1="1163.59" y1="1076.62" x2="618.591" y2="1363.62" stroke="#8B8B8B" stroke-width="24"/>
</svg>
