<svg width="1442" height="1407" viewBox="0 0 1442 1407" fill="none" xmlns="http://www.w3.org/2000/svg">
<rect x="183" y="753" width="18" height="28" fill="#8B8B8B"/>
<rect x="1231" y="662" width="18" height="27" fill="#8B8B8B"/>
<path d="M183.065 753.39L809.566 395.39L1248.57 661.483L622.066 1019.48L183.065 753.39Z" fill="#D9D9D9"/>
<line x1="788.523" y1="535.664" x2="807.523" y2="395.664" stroke="#8B8B8B" stroke-width="5"/>
<line x1="789.662" y1="537.589" x2="1248.66" y2="663.589" stroke="#8B8B8B" stroke-width="5"/>
<line x1="805.296" y1="395.862" x2="1247.3" y2="663.862" stroke="#8B8B8B" stroke-width="5"/>
<line x1="808.248" y1="396.166" x2="185.248" y2="755.166" stroke="#8B8B8B" stroke-width="5"/>
<line x1="603.671" y1="638.408" x2="183.671" y2="755.408" stroke="#8B8B8B" stroke-width="5"/>
<line x1="615.659" y1="1021.46" x2="188.931" y2="771.353" stroke="#8B8B8B" stroke-width="24"/>
<line x1="603.497" y1="635.874" x2="622.497" y2="1013.87" stroke="#8B8B8B" stroke-width="5"/>
<line x1="792.191" y1="535.198" x2="602.191" y2="638.198" stroke="#848383" stroke-width="5"/>
<line x1="1242.88" y1="678.46" x2="616.882" y2="1030.46" stroke="#8B8B8B" stroke-width="24"/>
<path d="M380 888L1012 529" stroke="#8B8B8B" stroke-width="7" stroke-dasharray="25 25"/>
<path d="M791 655L789 540" stroke="#FF0000" stroke-width="7" stroke-dasharray="20 20"/>
<path d="M791 611L826 593" stroke="#8B8B8B" stroke-width="5"/>
<line x1="823.5" y1="637" x2="823.5" y2="593" stroke="#8B8B8B" stroke-width="5"/>
<line x1="243" y1="805" x2="243" y2="1158" stroke="#8B8B8B" stroke-width="24"/>
<line x1="613" y1="1014" x2="613" y2="1376" stroke="#8B8B8B" stroke-width="24"/>
<line x1="1160" y1="724" x2="1160" y2="1087" stroke="#8B8B8B" stroke-width="24"/>
<path d="M1251.05 707.617C1251.27 706.819 1250.8 705.993 1250 705.774L1236.99 702.202C1236.19 701.983 1235.36 702.453 1235.14 703.252C1234.92 704.051 1235.39 704.876 1236.19 705.095L1247.76 708.27L1244.59 719.844C1244.37 720.642 1244.84 721.468 1245.64 721.687C1246.44 721.906 1247.26 721.436 1247.48 720.637L1251.05 707.617ZM621.744 1066.5L1250.35 708.524L1248.86 705.917L620.26 1063.89L621.744 1066.5Z" fill="#FA0000"/>
<path d="M618.557 1064.8C618.338 1065.6 618.809 1066.43 619.608 1066.65L632.628 1070.21C633.427 1070.43 634.252 1069.96 634.471 1069.16C634.689 1068.36 634.219 1067.53 633.42 1067.32L621.846 1064.15L625.014 1052.57C625.232 1051.77 624.762 1050.95 623.963 1050.73C623.164 1050.51 622.339 1050.98 622.12 1051.78L618.557 1064.8ZM1246.86 705.922L619.261 1063.9L620.747 1066.5L1248.35 708.528L1246.86 705.922Z" fill="#FA0000"/>
<path d="M921.375 960H911.051V926.545H921.832C925.078 926.545 927.855 927.215 930.163 928.555C932.472 929.883 934.242 931.795 935.472 934.288C936.703 936.771 937.318 939.744 937.318 943.207C937.318 946.692 936.697 949.692 935.456 952.208C934.214 954.713 932.407 956.64 930.033 957.991C927.659 959.33 924.773 960 921.375 960ZM915.102 956.406H921.114C923.88 956.406 926.172 955.873 927.991 954.805C929.809 953.738 931.165 952.219 932.058 950.248C932.951 948.277 933.398 945.93 933.398 943.207C933.398 940.507 932.957 938.182 932.075 936.232C931.192 934.272 929.875 932.769 928.121 931.724C926.368 930.667 924.185 930.139 921.571 930.139H915.102V956.406Z" fill="#FF0000"/>
<path d="M183.643 802.742C182.839 802.939 182.346 803.751 182.543 804.556L185.754 817.669C185.951 818.473 186.764 818.966 187.568 818.769C188.373 818.572 188.865 817.76 188.668 816.955L185.814 805.299L197.469 802.445C198.274 802.248 198.767 801.436 198.57 800.631C198.372 799.827 197.56 799.334 196.756 799.531L183.643 802.742ZM611.778 1061.92L184.778 802.917L183.222 805.482L610.222 1064.48L611.778 1061.92Z" fill="#FA0000"/>
<path d="M611.356 1064.65C612.161 1064.46 612.653 1063.65 612.456 1062.84L609.245 1049.73C609.048 1048.92 608.236 1048.43 607.431 1048.63C606.627 1048.82 606.134 1049.64 606.331 1050.44L609.186 1062.1L597.53 1064.95C596.725 1065.15 596.233 1065.96 596.43 1066.77C596.627 1067.57 597.439 1068.06 598.244 1067.87L611.356 1064.65ZM306.955 880.532L610.221 1064.48L611.777 1061.91L308.51 877.967L306.955 880.532Z" fill="#FA0000"/>
<path d="M361.423 977.197H357.176L369.46 943.743H373.642L385.926 977.197H381.679L371.682 949.035H371.42L361.423 977.197ZM362.991 964.129H380.111V967.723H362.991V964.129Z" fill="#FF0000"/>
<line x1="606.921" y1="1363.35" x2="235.921" y2="1145.35" stroke="#8B8B8B" stroke-width="24"/>
<line x1="1163.59" y1="1076.62" x2="618.591" y2="1363.62" stroke="#8B8B8B" stroke-width="24"/>
<path d="M749.051 619V585.545H753.102V602.142H753.494L768.523 585.545H773.815L759.767 600.639L773.815 619H768.915L757.284 603.449L753.102 608.153V619H749.051Z" fill="#FF0000"/>
<path d="M782.903 521.989C783.091 521.221 782.562 520.432 781.722 520.226L768.032 516.875C767.192 516.67 766.359 517.125 766.171 517.893C765.983 518.66 766.512 519.449 767.352 519.655L779.521 522.634L776.799 533.753C776.611 534.521 777.14 535.31 777.98 535.515C778.82 535.721 779.653 535.265 779.841 534.498L782.903 521.989ZM596.564 624.355L782.217 522.862L780.547 520.37L594.893 621.863L596.564 624.355Z" fill="#FA0000"/>
<path d="M593.712 622.454C593.525 623.223 594.054 624.012 594.893 624.216L608.574 627.547C609.414 627.751 610.246 627.294 610.433 626.525C610.62 625.756 610.091 624.967 609.252 624.763L597.091 621.802L599.802 610.667C599.989 609.898 599.46 609.109 598.621 608.905C597.781 608.7 596.949 609.158 596.762 609.927L593.712 622.454ZM779.551 519.796L594.397 621.578L596.067 624.07L781.222 522.288L779.551 519.796Z" fill="#FA0000"/>
<path d="M663.051 557V523.545H674.747C677.078 523.545 679 523.948 680.513 524.754C682.027 525.549 683.154 526.622 683.895 527.972C684.635 529.312 685.006 530.798 685.006 532.432C685.006 533.869 684.75 535.056 684.238 535.993C683.737 536.929 683.073 537.67 682.245 538.214C681.428 538.759 680.541 539.162 679.582 539.423V539.75C680.606 539.815 681.635 540.175 682.67 540.828C683.704 541.482 684.57 542.418 685.267 543.638C685.964 544.857 686.312 546.349 686.312 548.114C686.312 549.791 685.931 551.299 685.169 552.638C684.407 553.978 683.203 555.04 681.559 555.824C679.915 556.608 677.775 557 675.139 557H663.051ZM667.102 553.406H675.139C677.786 553.406 679.664 552.894 680.775 551.871C681.897 550.836 682.457 549.584 682.457 548.114C682.457 546.981 682.169 545.936 681.592 544.977C681.014 544.008 680.192 543.235 679.125 542.658C678.058 542.07 676.795 541.776 675.335 541.776H667.102V553.406ZM667.102 538.247H674.616C675.836 538.247 676.936 538.008 677.916 537.528C678.907 537.049 679.691 536.374 680.268 535.503C680.857 534.632 681.151 533.608 681.151 532.432C681.151 530.962 680.639 529.715 679.615 528.691C678.591 527.656 676.969 527.139 674.747 527.139H667.102V538.247Z" fill="#FA0000"/>
</svg>
