<svg width="1442" height="1407" viewBox="0 0 1442 1407" fill="none" xmlns="http://www.w3.org/2000/svg">
<g clip-path="url(#clip0_511_40)">
<line x1="602" y1="753" x2="602" y2="1145" stroke="#848383" stroke-width="24"/>
<line x1="1221" y1="451" x2="1221" y2="769" stroke="#848383" stroke-width="24"/>
<line x1="139" y1="507" x2="139" y2="900" stroke="#848383" stroke-width="24"/>
<line x1="606.353" y1="1145.46" x2="132.353" y2="892.456" stroke="#848383" stroke-width="24"/>
<line x1="611.349" y1="807.586" x2="137.349" y2="554.586" stroke="#848383" stroke-width="24"/>
<line x1="594.746" y1="1145.63" x2="1227.74" y2="758.761" stroke="#848383" stroke-width="24"/>
<rect x="1294" y="493" width="27" height="28" fill="#848383"/>
<path d="M43 551H70L73 568L43 576V551Z" fill="#848383"/>
<line x1="697.109" y1="900.843" x2="322.11" y2="486.926" stroke="#848383" stroke-width="24"/>
<line x1="333.616" y1="490.509" x2="45.9183" y2="562.64" stroke="#848383" stroke-width="24"/>
<line x1="684.735" y1="895.765" x2="1313.74" y2="510.765" stroke="#848383" stroke-width="24"/>
<path d="M692.5 877.786L331.002 478.87L42.9993 551L732.999 169L970.502 98.8693L1321.5 493.369L692.5 877.786Z" fill="#D9D9D9"/>
<path d="M324.686 488.223L974.001 102" stroke="#848383" stroke-width="5"/>
<line x1="731.215" y1="171.185" x2="44.2149" y2="553.185" stroke="#848383" stroke-width="5"/>
<line x1="731.296" y1="171.601" x2="973.296" y2="100.601" stroke="#848383" stroke-width="5"/>
<line x1="1318.12" y1="494.652" x2="972.124" y2="101.652" stroke="#848383" stroke-width="5"/>
</g>
<defs>
<clipPath id="clip0_511_40">
<rect width="1442" height="1407" fill="white"/>
</clipPath>
</defs>
</svg>
