<svg width="1442" height="1407" viewBox="0 0 1442 1407" fill="none" xmlns="http://www.w3.org/2000/svg">
<path d="M168.826 752.016L938.531 897.086" stroke="#8B8B8B" stroke-width="24"/>
<path d="M1158.5 485.5L897.5 360.499L524.11 428.622L794.846 588.476L1158.5 485.5Z" fill="#D9D9D9"/>
<line y1="-2.5" x2="263.344" y2="-2.5" transform="matrix(0 1 1 0 783.76 593.559)" stroke="#8B8B8B" stroke-width="5"/>
<line y1="-2.5" x2="245.788" y2="-2.5" transform="matrix(0 1 1 0 269.082 511.32)" stroke="#8B8B8B" stroke-width="5"/>
<line y1="-2.5" x2="364.062" y2="-2.5" transform="matrix(-4.37114e-08 1 1 4.37114e-08 515.795 442.945)" stroke="#8B8B8B" stroke-width="5"/>
<line y1="-12" x2="808.585" y2="-12" transform="matrix(0.969057 0.246835 0.246835 -0.969057 160.049 1026)" stroke="#8B8B8B" stroke-width="24"/>
<line y1="-12" x2="510.756" y2="-12" transform="matrix(0.445041 0.89551 0.89551 -0.445041 796.695 586.166)" stroke="#8B8B8B" stroke-width="24"/>
<line y1="-12" x2="325.722" y2="-12" transform="matrix(-0.868069 -0.496444 -0.496444 0.868069 788.379 606.496)" stroke="#8B8B8B" stroke-width="24"/>
<line x1="899.447" y1="360.46" x2="519.447" y2="429.46" stroke="#8B8B8B" stroke-width="5"/>
<line x1="1279" y1="1016.7" x2="1284" y2="813.705" stroke="#8B8B8B" stroke-width="24"/>
<path d="M1340 832L1157.5 487.001L789.5 583.001L1013 1030.5L1340 832Z" fill="#D9D9D9"/>
<line x1="897.087" y1="359.749" x2="1160.09" y2="486.749" stroke="#8B8B8B" stroke-width="5"/>
<line x1="1344.22" y1="836.264" x2="999.218" y2="1045.26" stroke="#8B8B8B" stroke-width="24"/>
<line y1="-2.5" x2="52.9195" y2="-2.5" transform="matrix(-0.907959 0.419058 0.419058 0.907959 160.049 862.447)" stroke="#8B8B8B" stroke-width="5"/>
<line y1="-12" x2="284.058" y2="-12" transform="matrix(0.962863 -0.269992 -0.269992 -0.962863 249.68 501.158)" stroke="#8B8B8B" stroke-width="24"/>
<line x1="787.745" y1="583.75" x2="1158.37" y2="486.583" stroke="#8B8B8B" stroke-width="5"/>
<line x1="1346.79" y1="846.164" x2="1156.79" y2="485.164" stroke="#8B8B8B" stroke-width="5"/>
<line y1="-12" x2="406.576" y2="-12" transform="matrix(-0.3909 0.920433 0.920433 0.3909 270.932 510.398)" stroke="#8B8B8B" stroke-width="24"/>
<line y1="-12" x2="316.937" y2="-12" transform="matrix(4.37114e-08 1 1 -4.37114e-08 173.91 733.086)" stroke="#8B8B8B" stroke-width="24"/>
<line x1="931" y1="897" x2="931" y2="1231" stroke="#8B8B8B" stroke-width="24"/>
<line x1="1283.59" y1="1007.03" x2="930.591" y2="1239.03" stroke="#8B8B8B" stroke-width="24"/>
</svg>
