<svg width="1442" height="1407" viewBox="0 0 1442 1407" fill="none" xmlns="http://www.w3.org/2000/svg">
<path d="M168.826 752.016L938.531 897.086" stroke="#8B8B8B" stroke-width="24"/>
<path d="M1158.5 485.5L897.5 360.499L524.11 428.622L794.846 588.476L1158.5 485.5Z" fill="#D9D9D9"/>
<line y1="-2.5" x2="263.344" y2="-2.5" transform="matrix(0 1 1 0 783.76 593.559)" stroke="#8B8B8B" stroke-width="5"/>
<line x1="271.582" y1="511.351" x2="268.5" y2="761.031" stroke="#8B8B8B" stroke-width="5"/>
<line y1="-2.5" x2="364.062" y2="-2.5" transform="matrix(-4.37114e-08 1 1 4.37114e-08 515.795 442.945)" stroke="#8B8B8B" stroke-width="5"/>
<line y1="-12" x2="808.585" y2="-12" transform="matrix(0.969057 0.246835 0.246835 -0.969057 160.049 1026)" stroke="#8B8B8B" stroke-width="24"/>
<line y1="-12" x2="510.756" y2="-12" transform="matrix(0.445041 0.89551 0.89551 -0.445041 796.695 586.166)" stroke="#8B8B8B" stroke-width="24"/>
<line y1="-12" x2="325.722" y2="-12" transform="matrix(-0.868069 -0.496444 -0.496444 0.868069 788.379 606.496)" stroke="#8B8B8B" stroke-width="24"/>
<line x1="899.447" y1="360.46" x2="519.447" y2="429.46" stroke="#8B8B8B" stroke-width="5"/>
<line x1="1279" y1="1016.7" x2="1284" y2="813.705" stroke="#8B8B8B" stroke-width="24"/>
<path d="M1340 832L1157.5 487.001L789.5 583.001L1013 1030.5L1340 832Z" fill="#D9D9D9"/>
<line x1="897.087" y1="359.749" x2="1160.09" y2="486.749" stroke="#8B8B8B" stroke-width="5"/>
<line x1="1344.22" y1="836.264" x2="999.218" y2="1045.26" stroke="#8B8B8B" stroke-width="24"/>
<line y1="-2.5" x2="52.9195" y2="-2.5" transform="matrix(-0.907959 0.419058 0.419058 0.907959 160.049 862.447)" stroke="#8B8B8B" stroke-width="5"/>
<line y1="-12" x2="284.058" y2="-12" transform="matrix(0.962863 -0.269992 -0.269992 -0.962863 249.68 501.158)" stroke="#8B8B8B" stroke-width="24"/>
<line x1="787.745" y1="583.75" x2="1158.37" y2="486.583" stroke="#8B8B8B" stroke-width="5"/>
<line x1="1346.79" y1="846.164" x2="1156.79" y2="485.164" stroke="#8B8B8B" stroke-width="5"/>
<line y1="-12" x2="406.576" y2="-12" transform="matrix(-0.3909 0.920433 0.920433 0.3909 270.932 510.398)" stroke="#8B8B8B" stroke-width="24"/>
<line y1="-12" x2="316.937" y2="-12" transform="matrix(4.37114e-08 1 1 -4.37114e-08 173.91 733.086)" stroke="#8B8B8B" stroke-width="24"/>
<line x1="931" y1="897" x2="931" y2="1231" stroke="#8B8B8B" stroke-width="24"/>
<line x1="1283.59" y1="1007.03" x2="930.591" y2="1239.03" stroke="#8B8B8B" stroke-width="24"/>
<path d="M173.098 792.801C172.436 793.299 172.303 794.239 172.801 794.901L180.918 805.689C181.416 806.351 182.356 806.484 183.018 805.986C183.68 805.488 183.813 804.547 183.315 803.885L176.1 794.296L185.689 787.082C186.351 786.584 186.484 785.643 185.986 784.981C185.488 784.319 184.548 784.186 183.886 784.685L173.098 792.801ZM266.21 805.515L174.21 792.514L173.79 795.485L265.79 808.485L266.21 805.515Z" fill="#8B8B8B"/>
<path d="M266.901 808.198C267.563 807.699 267.696 806.759 267.198 806.097L259.082 795.309C258.583 794.647 257.643 794.514 256.981 795.013C256.319 795.511 256.186 796.451 256.684 797.113L263.899 806.702L254.31 813.917C253.648 814.415 253.515 815.355 254.013 816.017C254.511 816.679 255.451 816.812 256.113 816.314L266.901 808.198ZM200.448 799.251L265.789 808.484L266.209 805.514L200.868 796.28L200.448 799.251Z" fill="#8B8B8B"/>
<path d="M943.046 1062.84C942.407 1063.37 942.315 1064.31 942.842 1064.95L951.424 1075.37C951.951 1076.01 952.896 1076.11 953.535 1075.58C954.175 1075.05 954.266 1074.11 953.74 1073.47L946.111 1064.2L955.374 1056.58C956.014 1056.05 956.105 1055.1 955.579 1054.46C955.052 1053.82 954.107 1053.73 953.467 1054.26L943.046 1062.84ZM1006.14 1068.51L944.144 1062.51L943.855 1065.49L1005.86 1071.49L1006.14 1068.51Z" fill="#8B8B8B"/>
<path d="M1006.95 1071.16C1007.59 1070.63 1007.68 1069.69 1007.16 1069.05L998.575 1058.63C998.048 1057.99 997.103 1057.89 996.464 1058.42C995.824 1058.95 995.733 1059.89 996.259 1060.53L1003.89 1069.8L994.624 1077.42C993.985 1077.95 993.893 1078.9 994.42 1079.54C994.947 1080.17 995.892 1080.27 996.532 1079.74L1006.95 1071.16ZM961.82 1067.23L1005.85 1071.49L1006.14 1068.51L962.109 1064.25L961.82 1067.23Z" fill="#8B8B8B"/>
<path d="M514.939 808.061C515.525 808.646 516.475 808.646 517.061 808.061L526.607 798.515C527.192 797.929 527.192 796.979 526.607 796.393C526.021 795.808 525.071 795.808 524.485 796.393L516 804.879L507.515 796.393C506.929 795.808 505.979 795.808 505.393 796.393C504.808 796.979 504.808 797.929 505.393 798.515L514.939 808.061ZM514.5 450L514.5 807L517.5 807L517.5 450L514.5 450Z" fill="#8B8B8B"/>
<path d="M517.061 448.941C516.475 448.355 515.525 448.355 514.939 448.941L505.393 458.487C504.808 459.073 504.808 460.022 505.393 460.608C505.979 461.194 506.929 461.194 507.515 460.608L516 452.123L524.485 460.608C525.071 461.194 526.021 461.194 526.607 460.608C527.192 460.022 527.192 459.073 526.607 458.487L517.061 448.941ZM517.5 703.553L517.5 450.002L514.5 450.002L514.5 703.553L517.5 703.553Z" fill="#8B8B8B"/>
<path d="M273.931 762.052C274.511 762.642 275.461 762.65 276.052 762.069L285.677 752.603C286.267 752.022 286.275 751.072 285.694 750.482C285.113 749.891 284.164 749.883 283.573 750.464L275.018 758.879L266.603 750.323C266.022 749.733 265.072 749.725 264.482 750.306C263.891 750.887 263.883 751.836 264.464 752.427L273.931 762.052ZM275.5 519.988L273.5 760.988L276.5 761.012L278.5 520.012L275.5 519.988Z" fill="#8B8B8B"/>
<path d="M278.07 518.949C277.489 518.359 276.539 518.351 275.949 518.932L266.324 528.398C265.733 528.979 265.725 529.929 266.306 530.519C266.887 531.11 267.837 531.118 268.428 530.537L276.983 522.122L285.398 530.678C285.978 531.268 286.928 531.276 287.519 530.695C288.109 530.115 288.117 529.165 287.536 528.574L278.07 518.949ZM277.08 691.178L278.5 520.014L275.501 519.989L274.08 691.154L277.08 691.178Z" fill="#8B8B8B"/>
<path d="M267.141 805.77C266.462 806.244 266.296 807.179 266.77 807.859L274.497 818.929C274.971 819.608 275.906 819.774 276.585 819.3C277.265 818.826 277.431 817.891 276.957 817.212L270.089 807.371L279.929 800.503C280.608 800.029 280.774 799.094 280.3 798.415C279.826 797.735 278.891 797.569 278.212 798.043L267.141 805.77ZM774.263 895.523L268.263 805.523L267.737 808.477L773.737 898.477L774.263 895.523Z" fill="#8B8B8B"/>
<path d="M774.853 898.233C775.532 897.758 775.698 896.823 775.224 896.144L767.497 885.074C767.023 884.395 766.088 884.228 765.409 884.702C764.73 885.177 764.563 886.112 765.037 886.791L771.906 896.631L762.066 903.499C761.386 903.973 761.22 904.909 761.694 905.588C762.168 906.267 763.103 906.433 763.783 905.959L774.853 898.233ZM414.356 834.559L773.732 898.479L774.257 895.526L414.882 831.605L414.356 834.559Z" fill="#8B8B8B"/>
<path d="M942.535 1263.69C942.363 1264.5 942.881 1265.3 943.692 1265.47L956.899 1268.27C957.709 1268.44 958.505 1267.92 958.677 1267.11C958.849 1266.3 958.331 1265.5 957.52 1265.33L945.78 1262.85L948.266 1251.11C948.437 1250.3 947.919 1249.5 947.109 1249.33C946.298 1249.16 945.502 1249.67 945.331 1250.49L942.535 1263.69ZM1295.18 1033.74L943.184 1262.75L944.82 1265.26L1296.82 1036.26L1295.18 1033.74Z" fill="#FA0000"/>
<path d="M1297.47 1035.32C1297.64 1034.51 1297.12 1033.71 1296.31 1033.54L1283.1 1030.74C1282.29 1030.57 1281.5 1031.09 1281.32 1031.9C1281.15 1032.71 1281.67 1033.51 1282.48 1033.68L1294.22 1036.16L1291.74 1047.9C1291.56 1048.71 1292.08 1049.51 1292.89 1049.68C1293.7 1049.85 1294.5 1049.33 1294.67 1048.52L1297.47 1035.32ZM1046.82 1198.91L1296.82 1036.26L1295.18 1033.75L1045.18 1196.39L1046.82 1198.91Z" fill="#FA0000"/>
<path d="M199.423 865H195.176L207.46 831.545H211.642L223.926 865H219.679L209.682 836.838H209.42L199.423 865ZM200.991 851.932H218.111V855.526H200.991V851.932ZM238.738 831.545V865H234.687V835.793H234.491L226.323 841.216V837.099L234.687 831.545H238.738Z" fill="#8B8B8B"/>
<path d="M481.423 910H477.176L489.46 876.545H493.642L505.926 910H501.679L491.682 881.838H491.42L481.423 910ZM482.991 896.932H500.111V900.526H482.991V896.932ZM510.549 910V907.06L521.592 894.972C522.888 893.556 523.955 892.325 524.793 891.28C525.632 890.223 526.253 889.232 526.656 888.307C527.069 887.37 527.276 886.39 527.276 885.366C527.276 884.19 526.993 883.172 526.427 882.312C525.871 881.451 525.109 880.787 524.14 880.319C523.171 879.851 522.082 879.616 520.873 879.616C519.588 879.616 518.466 879.883 517.508 880.417C516.56 880.94 515.825 881.675 515.303 882.622C514.791 883.57 514.535 884.68 514.535 885.955H510.68C510.68 883.994 511.132 882.274 512.036 880.793C512.939 879.312 514.17 878.157 515.727 877.33C517.295 876.502 519.054 876.088 521.004 876.088C522.964 876.088 524.701 876.502 526.214 877.33C527.728 878.157 528.915 879.273 529.776 880.678C530.636 882.083 531.066 883.646 531.066 885.366C531.066 886.597 530.843 887.8 530.396 888.977C529.961 890.142 529.198 891.443 528.109 892.881C527.031 894.307 525.534 896.05 523.617 898.108L516.103 906.145V906.406H531.654V910H510.549Z" fill="#8B8B8B"/>
<path d="M291.051 658V624.545H302.747C305.078 624.545 307 624.948 308.513 625.754C310.027 626.549 311.154 627.622 311.895 628.972C312.635 630.312 313.006 631.798 313.006 633.432C313.006 634.869 312.75 636.056 312.238 636.993C311.737 637.929 311.073 638.67 310.245 639.214C309.428 639.759 308.541 640.162 307.582 640.423V640.75C308.606 640.815 309.635 641.175 310.67 641.828C311.704 642.482 312.57 643.418 313.267 644.638C313.964 645.857 314.312 647.349 314.312 649.114C314.312 650.791 313.931 652.299 313.169 653.638C312.407 654.978 311.203 656.04 309.559 656.824C307.915 657.608 305.775 658 303.139 658H291.051ZM295.102 654.406H303.139C305.786 654.406 307.664 653.894 308.775 652.871C309.897 651.836 310.457 650.584 310.457 649.114C310.457 647.981 310.169 646.936 309.592 645.977C309.014 645.008 308.192 644.235 307.125 643.658C306.058 643.07 304.795 642.776 303.335 642.776H295.102V654.406ZM295.102 639.247H302.616C303.836 639.247 304.936 639.008 305.916 638.528C306.907 638.049 307.691 637.374 308.268 636.503C308.857 635.632 309.151 634.608 309.151 633.432C309.151 631.962 308.639 630.715 307.615 629.691C306.591 628.656 304.969 628.139 302.747 628.139H295.102V639.247ZM332.142 624.545V658H328.091V628.793H327.895L319.728 634.216V630.099L328.091 624.545H332.142Z" fill="#8B8B8B"/>
<path d="M536.051 674V640.545H547.747C550.078 640.545 552 640.948 553.513 641.754C555.027 642.549 556.154 643.622 556.895 644.972C557.635 646.312 558.006 647.798 558.006 649.432C558.006 650.869 557.75 652.056 557.238 652.993C556.737 653.929 556.073 654.67 555.245 655.214C554.428 655.759 553.541 656.162 552.582 656.423V656.75C553.606 656.815 554.635 657.175 555.67 657.828C556.704 658.482 557.57 659.418 558.267 660.638C558.964 661.857 559.312 663.349 559.312 665.114C559.312 666.791 558.931 668.299 558.169 669.638C557.407 670.978 556.203 672.04 554.559 672.824C552.915 673.608 550.775 674 548.139 674H536.051ZM540.102 670.406H548.139C550.786 670.406 552.664 669.894 553.775 668.871C554.897 667.836 555.457 666.584 555.457 665.114C555.457 663.981 555.169 662.936 554.592 661.977C554.014 661.008 553.192 660.235 552.125 659.658C551.058 659.07 549.795 658.776 548.335 658.776H540.102V670.406ZM540.102 655.247H547.616C548.836 655.247 549.936 655.008 550.916 654.528C551.907 654.049 552.691 653.374 553.268 652.503C553.857 651.632 554.151 650.608 554.151 649.432C554.151 647.962 553.639 646.715 552.615 645.691C551.591 644.656 549.969 644.139 547.747 644.139H540.102V655.247ZM565.381 674V671.06L576.424 658.972C577.72 657.556 578.787 656.325 579.625 655.28C580.464 654.223 581.085 653.232 581.488 652.307C581.901 651.37 582.108 650.39 582.108 649.366C582.108 648.19 581.825 647.172 581.259 646.312C580.703 645.451 579.941 644.787 578.972 644.319C578.003 643.851 576.914 643.616 575.705 643.616C574.42 643.616 573.298 643.883 572.34 644.417C571.392 644.94 570.657 645.675 570.135 646.622C569.623 647.57 569.367 648.68 569.367 649.955H565.512C565.512 647.994 565.964 646.274 566.868 644.793C567.771 643.312 569.002 642.157 570.559 641.33C572.127 640.502 573.886 640.088 575.836 640.088C577.796 640.088 579.533 640.502 581.047 641.33C582.56 642.157 583.747 643.273 584.608 644.678C585.468 646.083 585.898 647.646 585.898 649.366C585.898 650.597 585.675 651.8 585.228 652.977C584.793 654.142 584.03 655.443 582.941 656.881C581.863 658.307 580.366 660.05 578.449 662.108L570.935 670.145V670.406H586.486V674H565.381Z" fill="#8B8B8B"/>
<path d="M988.972 1102H984.92C984.681 1100.83 984.262 1099.81 983.663 1098.93C983.075 1098.05 982.356 1097.31 981.506 1096.71C980.668 1096.1 979.737 1095.64 978.713 1095.34C977.689 1095.03 976.622 1094.88 975.511 1094.88C973.486 1094.88 971.651 1095.39 970.006 1096.41C968.373 1097.44 967.071 1098.95 966.102 1100.94C965.144 1102.93 964.665 1105.38 964.665 1108.27C964.665 1111.17 965.144 1113.61 966.102 1115.61C967.071 1117.6 968.373 1119.11 970.006 1120.13C971.651 1121.16 973.486 1121.67 975.511 1121.67C976.622 1121.67 977.689 1121.52 978.713 1121.21C979.737 1120.91 980.668 1120.45 981.506 1119.85C982.356 1119.24 983.075 1118.5 983.663 1117.62C984.262 1116.72 984.681 1115.7 984.92 1114.55H988.972C988.667 1116.26 988.111 1117.79 987.305 1119.14C986.5 1120.49 985.498 1121.63 984.3 1122.58C983.102 1123.52 981.757 1124.23 980.265 1124.72C978.784 1125.21 977.199 1125.46 975.511 1125.46C972.658 1125.46 970.121 1124.76 967.899 1123.37C965.678 1121.97 963.93 1119.99 962.656 1117.42C961.381 1114.85 960.744 1111.8 960.744 1108.27C960.744 1104.74 961.381 1101.7 962.656 1099.12C963.93 1096.55 965.678 1094.57 967.899 1093.18C970.121 1091.79 972.658 1091.09 975.511 1091.09C977.199 1091.09 978.784 1091.33 980.265 1091.82C981.757 1092.31 983.102 1093.03 984.3 1093.98C985.498 1094.92 986.5 1096.06 987.305 1097.41C988.111 1098.75 988.667 1100.28 988.972 1102Z" fill="#8B8B8B"/>
<path d="M1173.38 1185H1163.05V1151.55H1173.83C1177.08 1151.55 1179.85 1152.22 1182.16 1153.55C1184.47 1154.88 1186.24 1156.79 1187.47 1159.29C1188.7 1161.77 1189.32 1164.74 1189.32 1168.21C1189.32 1171.69 1188.7 1174.69 1187.46 1177.21C1186.21 1179.71 1184.41 1181.64 1182.03 1182.99C1179.66 1184.33 1176.77 1185 1173.38 1185ZM1167.1 1181.41H1173.11C1175.88 1181.41 1178.17 1180.87 1179.99 1179.81C1181.81 1178.74 1183.17 1177.22 1184.06 1175.25C1184.95 1173.28 1185.4 1170.93 1185.4 1168.21C1185.4 1165.51 1184.96 1163.18 1184.07 1161.23C1183.19 1159.27 1181.87 1157.77 1180.12 1156.72C1178.37 1155.67 1176.18 1155.14 1173.57 1155.14H1167.1V1181.41Z" fill="#FA0000"/>
</svg>
