<svg width="1442" height="1407" viewBox="0 0 1442 1407" fill="none" xmlns="http://www.w3.org/2000/svg">
<g clip-path="url(#clip0_513_451)">
<line x1="602" y1="753" x2="602" y2="1145" stroke="#848383" stroke-width="24"/>
<line x1="1221" y1="451" x2="1221" y2="769" stroke="#848383" stroke-width="24"/>
<line x1="139" y1="507" x2="139" y2="900" stroke="#848383" stroke-width="24"/>
<line x1="606.353" y1="1145.46" x2="132.353" y2="892.456" stroke="#848383" stroke-width="24"/>
<line x1="611.349" y1="807.586" x2="137.349" y2="554.586" stroke="#848383" stroke-width="24"/>
<line x1="594.746" y1="1145.63" x2="1227.74" y2="758.761" stroke="#848383" stroke-width="24"/>
<rect x="1294" y="493" width="27" height="28" fill="#848383"/>
<path d="M43 551H70L73 568L43 576V551Z" fill="#848383"/>
<line x1="697.109" y1="900.843" x2="322.11" y2="486.926" stroke="#848383" stroke-width="24"/>
<line x1="333.616" y1="490.509" x2="45.9183" y2="562.64" stroke="#848383" stroke-width="24"/>
<line x1="684.735" y1="895.765" x2="1313.74" y2="510.765" stroke="#848383" stroke-width="24"/>
<path d="M692.5 877.786L331.002 478.87L42.9993 551L732.999 169L970.502 98.8693L1321.5 493.369L692.5 877.786Z" fill="#D9D9D9"/>
<path d="M691.773 914.287C692.485 913.863 692.718 912.942 692.294 912.23L685.382 900.634C684.958 899.922 684.037 899.689 683.326 900.113C682.614 900.537 682.381 901.458 682.805 902.17L688.949 912.478L678.641 918.621C677.929 919.045 677.696 919.966 678.12 920.678C678.544 921.389 679.465 921.622 680.176 921.198L691.773 914.287ZM611.634 894.453L690.637 914.452L691.373 911.544L612.37 891.545L611.634 894.453Z" fill="#8B8B8B"/>
<path d="M611.231 891.712C610.52 892.136 610.286 893.056 610.711 893.768L617.622 905.365C618.046 906.076 618.967 906.309 619.679 905.885C620.39 905.461 620.623 904.54 620.199 903.829L614.056 893.521L624.364 887.377C625.075 886.953 625.308 886.032 624.884 885.321C624.46 884.609 623.539 884.376 622.828 884.8L611.231 891.712ZM668.477 905.75L612.367 891.546L611.631 894.454L667.741 908.658L668.477 905.75Z" fill="#8B8B8B"/>
<path d="M662.972 943H658.92C658.681 941.835 658.262 940.811 657.663 939.929C657.075 939.047 656.356 938.306 655.506 937.707C654.668 937.098 653.737 936.64 652.713 936.335C651.689 936.03 650.622 935.878 649.511 935.878C647.486 935.878 645.651 936.39 644.006 937.413C642.373 938.437 641.071 939.945 640.102 941.938C639.144 943.931 638.665 946.376 638.665 949.273C638.665 952.17 639.144 954.614 640.102 956.607C641.071 958.6 642.373 960.108 644.006 961.132C645.651 962.156 647.486 962.668 649.511 962.668C650.622 962.668 651.689 962.515 652.713 962.21C653.737 961.905 654.668 961.453 655.506 960.854C656.356 960.245 657.075 959.499 657.663 958.616C658.262 957.723 658.681 956.7 658.92 955.545H662.972C662.667 957.255 662.111 958.785 661.305 960.136C660.5 961.486 659.498 962.635 658.3 963.582C657.102 964.519 655.757 965.232 654.265 965.722C652.784 966.212 651.199 966.457 649.511 966.457C646.658 966.457 644.121 965.76 641.899 964.366C639.678 962.973 637.93 960.991 636.656 958.42C635.381 955.85 634.744 952.801 634.744 949.273C634.744 945.744 635.381 942.695 636.656 940.125C637.93 937.555 639.678 935.573 641.899 934.179C644.121 932.785 646.658 932.088 649.511 932.088C651.199 932.088 652.784 932.333 654.265 932.823C655.757 933.313 657.102 934.032 658.3 934.979C659.498 935.916 660.5 937.059 661.305 938.41C662.111 939.749 662.667 941.279 662.972 943Z" fill="#8B8B8B"/>
<path d="M320.941 641.06C321.527 641.646 322.477 641.646 323.063 641.06L332.609 631.515C333.194 630.929 333.194 629.979 332.609 629.393C332.023 628.807 331.073 628.807 330.487 629.393L322.002 637.878L313.517 629.393C312.931 628.807 311.981 628.807 311.395 629.393C310.81 629.979 310.81 630.929 311.395 631.515L320.941 641.06ZM320.502 505.001L320.502 640L323.502 640L323.502 505.001L320.502 505.001Z" fill="#FA0000"/>
<path d="M323.061 503.939C322.475 503.354 321.525 503.354 320.939 503.939L311.393 513.485C310.808 514.071 310.808 515.021 311.393 515.607C311.979 516.192 312.929 516.192 313.515 515.607L322 507.121L330.485 515.607C331.071 516.192 332.021 516.192 332.607 515.607C333.192 515.021 333.192 514.071 332.607 513.485L323.061 503.939ZM323.5 600.88L323.5 505L320.5 505L320.5 600.88L323.5 600.88Z" fill="#FA0000"/>
<path d="M331.051 595V561.545H342.747C345.078 561.545 347 561.948 348.513 562.754C350.027 563.549 351.154 564.622 351.895 565.972C352.635 567.312 353.006 568.798 353.006 570.432C353.006 571.869 352.75 573.056 352.238 573.993C351.737 574.929 351.073 575.67 350.245 576.214C349.428 576.759 348.541 577.162 347.582 577.423V577.75C348.606 577.815 349.635 578.175 350.67 578.828C351.704 579.482 352.57 580.418 353.267 581.638C353.964 582.857 354.312 584.349 354.312 586.114C354.312 587.791 353.931 589.299 353.169 590.638C352.407 591.978 351.203 593.04 349.559 593.824C347.915 594.608 345.775 595 343.139 595H331.051ZM335.102 591.406H343.139C345.786 591.406 347.664 590.894 348.775 589.871C349.897 588.836 350.457 587.584 350.457 586.114C350.457 584.981 350.169 583.936 349.592 582.977C349.014 582.008 348.192 581.235 347.125 580.658C346.058 580.07 344.795 579.776 343.335 579.776H335.102V591.406ZM335.102 576.247H342.616C343.836 576.247 344.936 576.008 345.916 575.528C346.907 575.049 347.691 574.374 348.268 573.503C348.857 572.632 349.151 571.608 349.151 570.432C349.151 568.962 348.639 567.715 347.615 566.691C346.591 565.656 344.969 565.139 342.747 565.139H335.102V576.247Z" fill="#FA0000"/>
<path d="M324.686 488.223L974.001 102" stroke="#848383" stroke-width="5"/>
<line x1="731.215" y1="171.185" x2="44.2149" y2="553.185" stroke="#848383" stroke-width="5"/>
<line x1="731.296" y1="171.601" x2="973.296" y2="100.601" stroke="#848383" stroke-width="5"/>
<line x1="1318.12" y1="494.652" x2="972.124" y2="101.652" stroke="#848383" stroke-width="5"/>
<path d="M1235.46 799.349C1235.65 798.544 1235.16 797.734 1234.35 797.541L1221.22 794.39C1220.42 794.197 1219.61 794.693 1219.41 795.499C1219.22 796.305 1219.72 797.114 1220.52 797.308L1232.19 800.108L1229.39 811.776C1229.2 812.582 1229.69 813.392 1230.5 813.585C1231.31 813.778 1232.12 813.282 1232.31 812.476L1235.46 799.349ZM601.784 1188.28L1234.78 800.278L1233.22 797.72L600.216 1185.72L601.784 1188.28Z" fill="#8B8B8B"/>
<path d="M599.542 1186.65C599.348 1187.46 599.845 1188.27 600.65 1188.46L613.778 1191.61C614.583 1191.8 615.393 1191.31 615.586 1190.5C615.78 1189.69 615.283 1188.88 614.478 1188.69L602.809 1185.89L605.609 1174.22C605.802 1173.42 605.306 1172.61 604.5 1172.41C603.695 1172.22 602.885 1172.72 602.692 1173.52L599.542 1186.65ZM1049.79 910.153L600.217 1185.72L601.784 1188.28L1051.36 912.711L1049.79 910.153Z" fill="#8B8B8B"/>
<path d="M975.375 1010H965.051V976.545H975.832C979.078 976.545 981.855 977.215 984.163 978.555C986.472 979.883 988.242 981.795 989.472 984.288C990.703 986.771 991.318 989.744 991.318 993.207C991.318 996.692 990.697 999.692 989.456 1002.21C988.214 1004.71 986.407 1006.64 984.033 1007.99C981.659 1009.33 978.773 1010 975.375 1010ZM969.102 1006.41H975.114C977.88 1006.41 980.172 1005.87 981.991 1004.81C983.809 1003.74 985.165 1002.22 986.058 1000.25C986.951 998.277 987.398 995.93 987.398 993.207C987.398 990.507 986.957 988.182 986.075 986.232C985.192 984.272 983.875 982.769 982.121 981.724C980.368 980.667 978.185 980.139 975.571 980.139H969.102V1006.41Z" fill="#8B8B8B"/>
<path d="M126.571 931.565C125.777 931.801 125.326 932.637 125.563 933.431L129.422 946.367C129.659 947.161 130.495 947.613 131.289 947.376C132.082 947.139 132.534 946.304 132.297 945.51L128.866 934.011L140.366 930.58C141.159 930.343 141.611 929.508 141.374 928.714C141.137 927.92 140.302 927.468 139.508 927.705L126.571 931.565ZM597.713 1185.68L127.713 931.682L126.287 934.322L596.287 1188.32L597.713 1185.68Z" fill="#8B8B8B"/>
<path d="M597.429 1188.44C598.223 1188.2 598.674 1187.36 598.437 1186.57L594.578 1173.63C594.341 1172.84 593.506 1172.39 592.712 1172.63C591.918 1172.86 591.466 1173.7 591.703 1174.49L595.134 1185.99L583.635 1189.42C582.841 1189.66 582.389 1190.49 582.626 1191.29C582.863 1192.08 583.699 1192.53 584.492 1192.3L597.429 1188.44ZM262.48 1007.92L596.287 1188.32L597.713 1185.68L263.907 1005.28L262.48 1007.92Z" fill="#8B8B8B"/>
<path d="M330.423 1094H326.176L338.46 1060.55H342.642L354.926 1094H350.679L340.682 1065.84H340.42L330.423 1094ZM331.991 1080.93H349.111V1084.53H331.991V1080.93Z" fill="#8B8B8B"/>
</g>
<defs>
<clipPath id="clip0_513_451">
<rect width="1442" height="1407" fill="white"/>
</clipPath>
</defs>
</svg>
