<svg width="1442" height="1407" viewBox="0 0 1442 1407" fill="none" xmlns="http://www.w3.org/2000/svg">
<rect x="183" y="753" width="19" height="29" fill="#8B8B8B"/>
<rect x="1230" y="662" width="18" height="27" fill="#8B8B8B"/>
<path d="M183.065 753.391L809.566 395.391L1248.57 661.484L622.066 1019.48L183.065 753.391Z" fill="#D9D9D9"/>
<path d="M725.051 627V593.545H729.102V610.142H729.494L744.523 593.545H749.815L735.767 608.639L749.815 627H744.915L733.284 611.449L729.102 616.153V627H725.051Z" fill="#8B8B8B" fill-opacity="0.721569"/>
<line x1="705.9" y1="551.644" x2="807.9" y2="393.644" stroke="#8B8B8B" stroke-width="5"/>
<line x1="708.513" y1="550.553" x2="1247.51" y2="663.553" stroke="#8B8B8B" stroke-width="5"/>
<line x1="805.3" y1="394.864" x2="1247.3" y2="663.864" stroke="#8B8B8B" stroke-width="5"/>
<line x1="808.255" y1="393.162" x2="184.254" y2="755.162" stroke="#8B8B8B" stroke-width="5"/>
<line x1="708.919" y1="549.325" x2="184.919" y2="756.325" stroke="#8B8B8B" stroke-width="5"/>
<line x1="614.003" y1="1024.07" x2="189.72" y2="771.549" stroke="#8B8B8B" stroke-width="24"/>
<line x1="604.921" y1="1334.35" x2="233.921" y2="1116.35" stroke="#8B8B8B" stroke-width="24"/>
<line x1="710.457" y1="547.463" x2="622.457" y2="1014.46" stroke="#8B8B8B" stroke-width="5"/>
<line x1="1241.89" y1="678.456" x2="616.889" y2="1030.46" stroke="#8B8B8B" stroke-width="24"/>
<line x1="1171.56" y1="1044.64" x2="616.557" y2="1334.64" stroke="#8B8B8B" stroke-width="24"/>
<path d="M380 888L1012 529" stroke="#8B8B8B" stroke-width="7" stroke-dasharray="25 25"/>
<path d="M708 700L708 547" stroke="#8B8B8B" stroke-opacity="0.721569" stroke-width="7" stroke-dasharray="20 20"/>
<path d="M708.18 656.344L742.819 637.658" stroke="#8B8B8B" stroke-width="5"/>
<line x1="740.5" y1="682" x2="740.5" y2="638" stroke="#8B8B8B" stroke-width="5"/>
<line x1="243" y1="805" x2="243" y2="1124" stroke="#8B8B8B" stroke-width="24"/>
<line x1="613" y1="1014" x2="613" y2="1348" stroke="#8B8B8B" stroke-width="24"/>
<line x1="1160" y1="724" x2="1160" y2="1064" stroke="#8B8B8B" stroke-width="24"/>
<path d="M1251.05 708.419C1251.27 707.62 1250.8 706.795 1250 706.576L1236.99 703.004C1236.19 702.785 1235.36 703.255 1235.14 704.054C1234.92 704.852 1235.39 705.678 1236.19 705.897L1247.76 709.072L1244.59 720.645C1244.37 721.444 1244.84 722.27 1245.64 722.489C1246.44 722.708 1247.26 722.238 1247.48 721.439L1251.05 708.419ZM621.744 1067.3L1250.35 709.326L1248.86 706.719L620.26 1064.69L621.744 1067.3Z" fill="#FA0000"/>
<path d="M618.557 1065.61C618.338 1066.41 618.809 1067.23 619.608 1067.45L632.628 1071.01C633.427 1071.23 634.252 1070.76 634.471 1069.96C634.689 1069.16 634.219 1068.34 633.42 1068.12L621.846 1064.95L625.014 1053.38C625.232 1052.58 624.762 1051.75 623.963 1051.53C623.164 1051.32 622.339 1051.79 622.12 1052.58L618.557 1065.61ZM1246.86 706.724L619.261 1064.7L620.747 1067.31L1248.35 709.33L1246.86 706.724Z" fill="#FA0000"/>
<path d="M921.375 954H911.051V920.545H921.832C925.078 920.545 927.855 921.215 930.163 922.555C932.472 923.883 934.242 925.795 935.472 928.288C936.703 930.771 937.318 933.744 937.318 937.207C937.318 940.692 936.697 943.692 935.456 946.208C934.214 948.713 932.407 950.64 930.033 951.991C927.659 953.33 924.773 954 921.375 954ZM915.102 950.406H921.114C923.88 950.406 926.172 949.873 927.991 948.805C929.809 947.738 931.165 946.219 932.058 944.248C932.951 942.277 933.398 939.93 933.398 937.207C933.398 934.507 932.957 932.182 932.075 930.232C931.192 928.272 929.875 926.769 928.121 925.724C926.368 924.667 924.185 924.139 921.571 924.139H915.102V950.406Z" fill="#FA0000" fill-opacity="0.721569"/>
<path d="M183.643 803.544C182.839 803.741 182.346 804.553 182.543 805.358L185.754 818.47C185.951 819.275 186.764 819.768 187.568 819.571C188.373 819.373 188.865 818.561 188.668 817.757L185.814 806.101L197.469 803.247C198.274 803.05 198.767 802.238 198.57 801.433C198.372 800.628 197.56 800.136 196.756 800.333L183.643 803.544ZM611.778 1062.72L184.778 803.719L183.222 806.284L610.222 1065.28L611.778 1062.72Z" fill="#8B8B8B"/>
<path d="M611.356 1065.46C612.161 1065.26 612.653 1064.45 612.456 1063.64L609.245 1050.53C609.048 1049.72 608.236 1049.23 607.431 1049.43C606.627 1049.63 606.134 1050.44 606.331 1051.24L609.186 1062.9L597.53 1065.75C596.725 1065.95 596.233 1066.76 596.43 1067.57C596.627 1068.37 597.439 1068.86 598.244 1068.67L611.356 1065.46ZM306.955 881.333L610.221 1065.28L611.777 1062.72L308.51 878.768L306.955 881.333Z" fill="#8B8B8B"/>
<path d="M361.423 978H357.176L369.46 944.545H373.642L385.926 978H381.679L371.682 949.838H371.42L361.423 978ZM362.991 964.932H380.111V968.526H362.991V964.932Z" fill="#8B8B8B" fill-opacity="0.721569"/>
</svg>
