<svg width="1442" height="1407" viewBox="0 0 1442 1407" fill="none" xmlns="http://www.w3.org/2000/svg">
<rect x="183" y="753" width="19" height="29" fill="#8B8B8B"/>
<rect x="1230" y="662" width="18" height="27" fill="#8B8B8B"/>
<path d="M183.065 753.391L809.566 395.391L1248.57 661.484L622.066 1019.48L183.065 753.391Z" fill="#D9D9D9"/>
<line x1="705.9" y1="551.644" x2="807.9" y2="393.644" stroke="#8B8B8B" stroke-width="5"/>
<line x1="708.513" y1="550.553" x2="1247.51" y2="663.553" stroke="#8B8B8B" stroke-width="5"/>
<line x1="805.3" y1="394.864" x2="1247.3" y2="663.864" stroke="#8B8B8B" stroke-width="5"/>
<line x1="808.255" y1="393.162" x2="184.254" y2="755.162" stroke="#8B8B8B" stroke-width="5"/>
<line x1="708.919" y1="549.325" x2="184.919" y2="756.325" stroke="#8B8B8B" stroke-width="5"/>
<line x1="614.003" y1="1024.07" x2="189.72" y2="771.549" stroke="#8B8B8B" stroke-width="24"/>
<line x1="604.921" y1="1334.35" x2="233.921" y2="1116.35" stroke="#8B8B8B" stroke-width="24"/>
<line x1="710.457" y1="547.463" x2="622.457" y2="1014.46" stroke="#8B8B8B" stroke-width="5"/>
<line x1="1241.89" y1="678.456" x2="616.889" y2="1030.46" stroke="#8B8B8B" stroke-width="24"/>
<line x1="1171.56" y1="1044.64" x2="616.557" y2="1334.64" stroke="#8B8B8B" stroke-width="24"/>
<line x1="243" y1="805" x2="243" y2="1124" stroke="#8B8B8B" stroke-width="24"/>
<line x1="613" y1="1014" x2="613" y2="1348" stroke="#8B8B8B" stroke-width="24"/>
<line x1="1160" y1="724" x2="1160" y2="1064" stroke="#8B8B8B" stroke-width="24"/>
</svg>
