<svg width="1442" height="1407" viewBox="0 0 1442 1407" fill="none" xmlns="http://www.w3.org/2000/svg">
<g clip-path="url(#clip0_511_2)">
<line x1="600.129" y1="896.523" x2="600.129" y2="1212.52" stroke="#848383" stroke-width="24"/>
<line x1="1270.13" y1="619.523" x2="1270.13" y2="831.523" stroke="#848383" stroke-width="24"/>
<line x1="174" y1="528" x2="174" y2="1001" stroke="#848383" stroke-width="24"/>
<line x1="607.653" y1="1208.74" x2="167.653" y2="989.743" stroke="#848383" stroke-width="24"/>
<line x1="596.087" y1="933.136" x2="167.087" y2="724.136" stroke="#848383" stroke-width="27"/>
<line x1="596.362" y1="1209.13" x2="1276.87" y2="820.556" stroke="#848383" stroke-width="24"/>
<rect x="1332.73" y="609.485" width="24.5808" height="25.4912" fill="#848383"/>
<rect x="229.686" y="522.604" width="35.5055" height="30.9535" fill="#848383"/>
<line x1="713.321" y1="1012.22" x2="71.4483" y2="477.745" stroke="#848383" stroke-width="24"/>
<line x1="698.877" y1="1011.68" x2="1351.19" y2="624.654" stroke="#848383" stroke-width="24"/>
<path d="M707.582 993.87L79.5761 468.668L769.127 124.519L1029.5 336L1193 472L1357.59 609.526L707.582 993.87Z" fill="#D9D9D9"/>
<path d="M766.961 122.035C766.961 122.035 1353.49 606.676 1356.7 610.152" stroke="#8B8B8B" stroke-width="5"/>
<path d="M769.664 122.338L79.9998 471" stroke="#8B8B8B" stroke-width="5"/>
</g>
<defs>
<clipPath id="clip0_511_2">
<rect width="1442" height="1407" fill="white"/>
</clipPath>
</defs>
</svg>
