<svg width="1442" height="1407" viewBox="0 0 1442 1407" fill="none" xmlns="http://www.w3.org/2000/svg">
<g clip-path="url(#clip0_513_269)">
<line x1="600.129" y1="896.523" x2="600.129" y2="1212.52" stroke="#848383" stroke-width="24"/>
<line x1="1270.13" y1="619.523" x2="1270.13" y2="831.523" stroke="#848383" stroke-width="24"/>
<line x1="174" y1="528" x2="174" y2="1001" stroke="#848383" stroke-width="24"/>
<line x1="607.653" y1="1208.74" x2="167.653" y2="989.743" stroke="#848383" stroke-width="24"/>
<line x1="596.087" y1="933.136" x2="167.087" y2="724.136" stroke="#848383" stroke-width="27"/>
<line x1="596.362" y1="1209.13" x2="1276.87" y2="820.556" stroke="#848383" stroke-width="24"/>
<rect x="1332.73" y="609.485" width="24.5808" height="25.4912" fill="#848383"/>
<rect x="229.688" y="522.604" width="35.5055" height="30.9535" fill="#848383"/>
<line x1="713.323" y1="1012.22" x2="71.4502" y2="477.745" stroke="#848383" stroke-width="24"/>
<line x1="698.879" y1="1011.68" x2="1351.19" y2="624.654" stroke="#848383" stroke-width="24"/>
<path d="M707.584 993.87L79.5781 468.668L769.129 124.519L1029.5 336L1193 472L1357.59 609.526L707.584 993.87Z" fill="#D9D9D9"/>
<path d="M766.963 122.035C766.963 122.035 1353.49 606.676 1356.7 610.152" stroke="#8B8B8B" stroke-width="5"/>
<path d="M769.664 122.338L79.9998 471" stroke="#8B8B8B" stroke-width="5"/>
<path d="M201.845 723.081C201.253 723.66 200.303 723.65 199.724 723.058L190.281 713.41C189.701 712.818 189.712 711.868 190.304 711.289C190.896 710.709 191.845 710.719 192.425 711.311L200.818 719.887L209.394 711.494C209.987 710.914 210.936 710.925 211.516 711.517C212.095 712.109 212.085 713.058 211.493 713.638L201.845 723.081ZM203.478 612.016L202.296 722.025L199.296 721.993L200.479 611.984L203.478 612.016Z" fill="#FA0000"/>
<path d="M200.93 610.928C201.522 610.348 202.472 610.358 203.051 610.95L212.495 620.597C213.075 621.189 213.065 622.139 212.473 622.718C211.881 623.298 210.931 623.288 210.351 622.696L201.957 614.121L193.382 622.515C192.79 623.095 191.84 623.085 191.261 622.493C190.681 621.901 190.691 620.951 191.283 620.372L200.93 610.928ZM199.649 690.115L200.48 611.984L203.479 612.016L202.648 690.147L199.649 690.115Z" fill="#FA0000"/>
<path d="M705.933 1036.06C706.519 1035.47 706.519 1034.52 705.933 1033.94L696.387 1024.39C695.802 1023.81 694.852 1023.81 694.266 1024.39C693.68 1024.98 693.68 1025.93 694.266 1026.51L702.751 1035L694.266 1043.48C693.68 1044.07 693.68 1045.02 694.266 1045.6C694.852 1046.19 695.802 1046.19 696.387 1045.6L705.933 1036.06ZM613.002 1036.5L704.873 1036.5L704.873 1033.5L613.002 1033.5L613.002 1036.5Z" fill="#8B8B8B"/>
<path d="M611.94 1033.94C611.354 1034.52 611.354 1035.47 611.94 1036.06L621.486 1045.61C622.072 1046.19 623.022 1046.19 623.607 1045.61C624.193 1045.02 624.193 1044.07 623.607 1043.49L615.122 1035L623.608 1026.51C624.193 1025.93 624.193 1024.98 623.608 1024.39C623.022 1023.81 622.072 1023.81 621.486 1024.39L611.94 1033.94ZM678.25 1033.5L613.001 1033.5L613.001 1036.5L678.25 1036.5L678.25 1033.5Z" fill="#8B8B8B"/>
<path d="M161.533 1017.57C160.746 1017.83 160.317 1018.68 160.574 1019.47L164.774 1032.3C165.031 1033.08 165.879 1033.51 166.666 1033.26C167.453 1033 167.883 1032.15 167.625 1031.36L163.892 1019.96L175.297 1016.23C176.084 1015.97 176.514 1015.12 176.256 1014.33C175.998 1013.55 175.151 1013.12 174.364 1013.38L161.533 1017.57ZM602.678 1240.66L162.678 1017.66L161.322 1020.34L601.322 1243.34L602.678 1240.66Z" fill="#8B8B8B"/>
<path d="M602.467 1243.43C603.254 1243.17 603.683 1242.32 603.426 1241.53L599.226 1228.7C598.968 1227.92 598.121 1227.49 597.334 1227.74C596.547 1228 596.117 1228.85 596.375 1229.64L600.108 1241.04L588.703 1244.77C587.916 1245.03 587.486 1245.88 587.744 1246.67C588.002 1247.45 588.849 1247.88 589.636 1247.62L602.467 1243.43ZM288.822 1084.96L601.322 1243.34L602.678 1240.66L290.178 1082.28L288.822 1084.96Z" fill="#8B8B8B"/>
<path d="M1284.45 848.385C1284.66 847.585 1284.19 846.763 1283.39 846.55L1270.34 843.082C1269.54 842.87 1268.72 843.346 1268.5 844.147C1268.29 844.947 1268.77 845.769 1269.57 845.982L1281.17 849.064L1278.08 860.662C1277.87 861.462 1278.35 862.284 1279.15 862.497C1279.95 862.709 1280.77 862.233 1280.98 861.432L1284.45 848.385ZM602.753 1244.3L1283.75 849.298L1282.25 846.702L601.247 1241.7L602.753 1244.3Z" fill="#8B8B8B"/>
<path d="M600.55 1242.62C600.337 1243.42 600.813 1244.24 601.614 1244.45L614.661 1247.92C615.462 1248.13 616.283 1247.65 616.496 1246.85C616.709 1246.05 616.232 1245.23 615.432 1245.02L603.834 1241.94L606.917 1230.34C607.13 1229.54 606.653 1228.72 605.852 1228.5C605.052 1228.29 604.23 1228.77 604.018 1229.57L600.55 1242.62ZM1084.91 961.162L601.247 1241.7L602.752 1244.3L1086.42 963.757L1084.91 961.162Z" fill="#8B8B8B"/>
<path d="M313.423 1163H309.176L321.46 1129.55H325.642L337.926 1163H333.679L323.682 1134.84H323.42L313.423 1163ZM314.991 1149.93H332.111V1153.53H314.991V1149.93Z" fill="#8B8B8B"/>
<path d="M214.051 693V659.545H225.747C228.078 659.545 230 659.948 231.513 660.754C233.027 661.549 234.154 662.622 234.895 663.972C235.635 665.312 236.006 666.798 236.006 668.432C236.006 669.869 235.75 671.056 235.238 671.993C234.737 672.929 234.073 673.67 233.245 674.214C232.428 674.759 231.541 675.162 230.582 675.423V675.75C231.606 675.815 232.635 676.175 233.67 676.828C234.704 677.482 235.57 678.418 236.267 679.638C236.964 680.857 237.312 682.349 237.312 684.114C237.312 685.791 236.931 687.299 236.169 688.638C235.407 689.978 234.203 691.04 232.559 691.824C230.915 692.608 228.775 693 226.139 693H214.051ZM218.102 689.406H226.139C228.786 689.406 230.664 688.894 231.775 687.871C232.897 686.836 233.457 685.584 233.457 684.114C233.457 682.981 233.169 681.936 232.592 680.977C232.014 680.008 231.192 679.235 230.125 678.658C229.058 678.07 227.795 677.776 226.335 677.776H218.102V689.406ZM218.102 674.247H225.616C226.836 674.247 227.936 674.008 228.916 673.528C229.907 673.049 230.691 672.374 231.268 671.503C231.857 670.632 232.151 669.608 232.151 668.432C232.151 666.962 231.639 665.715 230.615 664.691C229.591 663.656 227.969 663.139 225.747 663.139H218.102V674.247Z" fill="#FA0000"/>
<path d="M981.375 1093H971.051V1059.55H981.832C985.078 1059.55 987.855 1060.22 990.163 1061.55C992.472 1062.88 994.242 1064.79 995.472 1067.29C996.703 1069.77 997.318 1072.74 997.318 1076.21C997.318 1079.69 996.697 1082.69 995.456 1085.21C994.214 1087.71 992.407 1089.64 990.033 1090.99C987.659 1092.33 984.773 1093 981.375 1093ZM975.102 1089.41H981.114C983.88 1089.41 986.172 1088.87 987.991 1087.81C989.809 1086.74 991.165 1085.22 992.058 1083.25C992.951 1081.28 993.398 1078.93 993.398 1076.21C993.398 1073.51 992.957 1071.18 992.075 1069.23C991.192 1067.27 989.875 1065.77 988.121 1064.72C986.368 1063.67 984.185 1063.14 981.571 1063.14H975.102V1089.41Z" fill="#8B8B8B"/>
<path d="M656.972 1070H652.92C652.681 1068.83 652.262 1067.81 651.663 1066.93C651.075 1066.05 650.356 1065.31 649.506 1064.71C648.668 1064.1 647.737 1063.64 646.713 1063.34C645.689 1063.03 644.622 1062.88 643.511 1062.88C641.486 1062.88 639.651 1063.39 638.006 1064.41C636.373 1065.44 635.071 1066.95 634.102 1068.94C633.144 1070.93 632.665 1073.38 632.665 1076.27C632.665 1079.17 633.144 1081.61 634.102 1083.61C635.071 1085.6 636.373 1087.11 638.006 1088.13C639.651 1089.16 641.486 1089.67 643.511 1089.67C644.622 1089.67 645.689 1089.52 646.713 1089.21C647.737 1088.91 648.668 1088.45 649.506 1087.85C650.356 1087.24 651.075 1086.5 651.663 1085.62C652.262 1084.72 652.681 1083.7 652.92 1082.55H656.972C656.667 1084.26 656.111 1085.79 655.305 1087.14C654.5 1088.49 653.498 1089.63 652.3 1090.58C651.102 1091.52 649.757 1092.23 648.265 1092.72C646.784 1093.21 645.199 1093.46 643.511 1093.46C640.658 1093.46 638.121 1092.76 635.899 1091.37C633.678 1089.97 631.93 1087.99 630.656 1085.42C629.381 1082.85 628.744 1079.8 628.744 1076.27C628.744 1072.74 629.381 1069.7 630.656 1067.12C631.93 1064.55 633.678 1062.57 635.899 1061.18C638.121 1059.79 640.658 1059.09 643.511 1059.09C645.199 1059.09 646.784 1059.33 648.265 1059.82C649.757 1060.31 651.102 1061.03 652.3 1061.98C653.498 1062.92 654.5 1064.06 655.305 1065.41C656.111 1066.75 656.667 1068.28 656.972 1070ZM662.93 1093V1090.06L673.972 1077.97C675.268 1076.56 676.336 1075.33 677.174 1074.28C678.013 1073.22 678.633 1072.23 679.036 1071.31C679.45 1070.37 679.657 1069.39 679.657 1068.37C679.657 1067.19 679.374 1066.17 678.808 1065.31C678.252 1064.45 677.49 1063.79 676.521 1063.32C675.552 1062.85 674.463 1062.62 673.254 1062.62C671.969 1062.62 670.847 1062.88 669.889 1063.42C668.941 1063.94 668.206 1064.67 667.683 1065.62C667.172 1066.57 666.916 1067.68 666.916 1068.95H663.061C663.061 1066.99 663.512 1065.27 664.416 1063.79C665.32 1062.31 666.551 1061.16 668.108 1060.33C669.676 1059.5 671.435 1059.09 673.384 1059.09C675.345 1059.09 677.082 1059.5 678.595 1060.33C680.109 1061.16 681.296 1062.27 682.156 1063.68C683.017 1065.08 683.447 1066.65 683.447 1068.37C683.447 1069.6 683.224 1070.8 682.777 1071.98C682.342 1073.14 681.579 1074.44 680.49 1075.88C679.412 1077.31 677.915 1079.05 675.998 1081.11L668.484 1089.14V1089.41H684.035V1093H662.93Z" fill="#8B8B8B"/>
<path d="M115.03 657.45H110.979C110.739 656.285 110.32 655.261 109.721 654.379C109.133 653.497 108.414 652.757 107.565 652.158C106.726 651.548 105.795 651.09 104.772 650.785C103.748 650.48 102.681 650.328 101.57 650.328C99.5444 650.328 97.7094 650.84 96.065 651.864C94.4315 652.887 93.1301 654.396 92.1609 656.388C91.2025 658.381 90.7234 660.826 90.7234 663.723C90.7234 666.62 91.2025 669.065 92.1609 671.057C93.1301 673.05 94.4315 674.559 96.065 675.582C97.7094 676.606 99.5444 677.118 101.57 677.118C102.681 677.118 103.748 676.965 104.772 676.66C105.795 676.355 106.726 675.904 107.565 675.305C108.414 674.695 109.133 673.949 109.721 673.067C110.32 672.174 110.739 671.15 110.979 669.996H115.03C114.725 671.705 114.17 673.235 113.364 674.586C112.558 675.936 111.556 677.085 110.358 678.033C109.16 678.969 107.815 679.682 106.324 680.172C104.842 680.663 103.258 680.908 101.57 680.908C98.7167 680.908 96.1793 680.211 93.9577 678.817C91.7362 677.423 89.9883 675.441 88.7141 672.871C87.44 670.301 86.8029 667.251 86.8029 663.723C86.8029 660.195 87.44 657.145 88.7141 654.575C89.9883 652.005 91.7362 650.023 93.9577 648.629C96.1793 647.235 98.7167 646.538 101.57 646.538C103.258 646.538 104.842 646.783 106.324 647.273C107.815 647.763 109.16 648.482 110.358 649.43C111.556 650.366 112.558 651.51 113.364 652.86C114.17 654.199 114.725 655.73 115.03 657.45ZM132.75 646.996V680.45H128.699V651.243H128.503L120.335 656.666V652.55L128.699 646.996H132.75Z" fill="#8B8B8B"/>
<path d="M158.033 629.637C158.629 629.062 158.645 628.112 158.07 627.516L148.691 617.806C148.115 617.21 147.166 617.194 146.57 617.769C145.974 618.345 145.958 619.294 146.533 619.89L154.87 628.522L146.238 636.858C145.643 637.434 145.626 638.383 146.202 638.979C146.777 639.575 147.727 639.592 148.323 639.016L158.033 629.637ZM65.974 628.478L156.965 630.058L157.017 627.059L66.026 625.479L65.974 628.478Z" fill="#8B8B8B"/>
<path d="M64.9588 625.93C64.3629 626.505 64.3464 627.455 64.9219 628.051L74.3007 637.761C74.8763 638.357 75.8259 638.373 76.4217 637.798C77.0176 637.222 77.0341 636.273 76.4586 635.677L68.1219 627.046L76.7532 618.709C77.349 618.133 77.3655 617.184 76.79 616.588C76.2145 615.992 75.2649 615.976 74.669 616.551L64.9588 625.93ZM130.651 626.631L66.0269 625.509L65.9748 628.509L130.599 629.631L130.651 626.631Z" fill="#8B8B8B"/>
<path d="M66 491L65 627" stroke="#8B8B8B" stroke-dasharray="2 2"/>
</g>
<defs>
<clipPath id="clip0_513_269">
<rect width="1442" height="1407" fill="white"/>
</clipPath>
</defs>
</svg>
