<svg width="1442" height="1407" viewBox="0 0 1442 1407" fill="none" xmlns="http://www.w3.org/2000/svg">
<rect width="1442" height="1407" fill="white"/>
<rect x="183" y="753" width="19" height="29" fill="#8B8B8B"/>
<rect x="1230" y="662" width="18" height="27" fill="#8B8B8B"/>
<path d="M183.065 753.39L809.566 395.39L1248.57 661.483L622.066 1019.48L183.065 753.39Z" fill="#D9D9D9"/>
<path d="M725.051 627V593.545H729.102V610.142H729.494L744.523 593.545H749.815L735.767 608.639L749.815 627H744.915L733.284 611.449L729.102 616.153V627H725.051Z" fill="#FF0000"/>
<line x1="705.9" y1="551.644" x2="807.9" y2="393.644" stroke="#8B8B8B" stroke-width="5"/>
<line x1="708.513" y1="550.553" x2="1247.51" y2="663.553" stroke="#8B8B8B" stroke-width="5"/>
<line x1="805.3" y1="394.864" x2="1247.3" y2="663.864" stroke="#8B8B8B" stroke-width="5"/>
<line x1="808.255" y1="393.162" x2="184.254" y2="755.162" stroke="#8B8B8B" stroke-width="5"/>
<line x1="708.919" y1="549.325" x2="184.919" y2="756.325" stroke="#8B8B8B" stroke-width="5"/>
<line x1="614.004" y1="1024.07" x2="189.721" y2="771.549" stroke="#8B8B8B" stroke-width="24"/>
<line x1="604.921" y1="1334.35" x2="233.921" y2="1116.35" stroke="#8B8B8B" stroke-width="24"/>
<line x1="710.457" y1="547.463" x2="622.457" y2="1014.46" stroke="#8B8B8B" stroke-width="5"/>
<line x1="1241.89" y1="678.456" x2="616.889" y2="1030.46" stroke="#8B8B8B" stroke-width="24"/>
<line x1="1171.56" y1="1044.64" x2="616.557" y2="1334.64" stroke="#8B8B8B" stroke-width="24"/>
<path d="M380 888L1012 529" stroke="#8B8B8B" stroke-width="7" stroke-dasharray="25 25"/>
<path d="M708 700L708 547" stroke="#FF0000" stroke-width="7" stroke-dasharray="20 20"/>
<path d="M708.181 656.343L742.819 637.657" stroke="#8B8B8B" stroke-width="5"/>
<line x1="740.5" y1="682" x2="740.5" y2="638" stroke="#8B8B8B" stroke-width="5"/>
<line x1="243" y1="805" x2="243" y2="1124" stroke="#8B8B8B" stroke-width="24"/>
<line x1="613" y1="1014" x2="613" y2="1348" stroke="#8B8B8B" stroke-width="24"/>
<line x1="1160" y1="724" x2="1160" y2="1064" stroke="#8B8B8B" stroke-width="24"/>
<path d="M1251.05 708.42C1251.27 707.621 1250.8 706.796 1250 706.577L1236.99 703.005C1236.19 702.786 1235.36 703.256 1235.14 704.055C1234.92 704.853 1235.39 705.679 1236.19 705.898L1247.76 709.073L1244.59 720.646C1244.37 721.445 1244.84 722.271 1245.64 722.49C1246.44 722.709 1247.26 722.239 1247.48 721.44L1251.05 708.42ZM621.744 1067.3L1250.35 709.327L1248.86 706.72L620.26 1064.7L621.744 1067.3Z" fill="#FA0000"/>
<path d="M618.556 1065.61C618.337 1066.41 618.808 1067.23 619.607 1067.45L632.627 1071.01C633.426 1071.23 634.251 1070.76 634.47 1069.96C634.688 1069.16 634.218 1068.34 633.419 1068.12L621.845 1064.95L625.013 1053.38C625.232 1052.58 624.761 1051.75 623.962 1051.53C623.163 1051.32 622.338 1051.79 622.119 1052.58L618.556 1065.61ZM1246.86 706.724L619.26 1064.7L620.746 1067.31L1248.35 709.33L1246.86 706.724Z" fill="#FA0000"/>
<path d="M973.375 922H963.051V888.545H973.832C977.078 888.545 979.855 889.215 982.163 890.555C984.472 891.883 986.242 893.795 987.472 896.288C988.703 898.771 989.318 901.744 989.318 905.207C989.318 908.692 988.697 911.692 987.456 914.208C986.214 916.713 984.407 918.64 982.033 919.991C979.659 921.33 976.773 922 973.375 922ZM967.102 918.406H973.114C975.88 918.406 978.172 917.873 979.991 916.805C981.809 915.738 983.165 914.219 984.058 912.248C984.951 910.277 985.398 907.93 985.398 905.207C985.398 902.507 984.957 900.182 984.075 898.232C983.192 896.272 981.875 894.769 980.121 893.724C978.368 892.667 976.185 892.139 973.571 892.139H967.102V918.406Z" fill="#FF0000"/>
<path d="M183.643 803.545C182.839 803.742 182.346 804.554 182.543 805.359L185.754 818.471C185.951 819.276 186.764 819.769 187.568 819.571C188.373 819.374 188.865 818.562 188.668 817.758L185.814 806.102L197.469 803.248C198.274 803.051 198.767 802.239 198.57 801.434C198.372 800.629 197.56 800.137 196.756 800.334L183.643 803.545ZM611.778 1062.72L184.778 803.72L183.222 806.285L610.222 1065.28L611.778 1062.72Z" fill="#FA0000"/>
<path d="M611.356 1065.46C612.161 1065.26 612.653 1064.45 612.456 1063.64L609.245 1050.53C609.048 1049.73 608.236 1049.23 607.431 1049.43C606.627 1049.63 606.134 1050.44 606.331 1051.24L609.186 1062.9L597.53 1065.75C596.725 1065.95 596.233 1066.76 596.43 1067.57C596.627 1068.37 597.439 1068.87 598.244 1068.67L611.356 1065.46ZM306.955 881.334L610.221 1065.28L611.777 1062.72L308.51 878.769L306.955 881.334Z" fill="#FA0000"/>
<path d="M361.423 978H357.176L369.46 944.545H373.642L385.926 978H381.679L371.682 949.838H371.42L361.423 978ZM362.991 964.932H380.111V968.526H362.991V964.932Z" fill="#FF0000"/>
</svg>
